<svg width="454" height="100" viewBox="0 0 454 100" fill="none" xmlns="http://www.w3.org/2000/svg">
<g clip-path="url(#clip0_1_2)">
<rect width="100" height="100" rx="30" fill="#2CB1BC"/>
<path d="M29.6 78V22.8H39.04V78H29.6ZM34.24 78V69.6H47.84C51.0933 69.6 53.9733 68.88 56.48 67.44C58.9867 65.9467 60.96 63.7867 62.4 60.96C63.8933 58.08 64.64 54.56 64.64 50.4C64.64 46.24 63.8933 42.7467 62.4 39.92C60.96 37.04 58.9867 34.88 56.48 33.44C53.9733 31.9467 51.0933 31.2 47.84 31.2H34.24V22.8H48.56C53.36 22.8 57.7067 23.8933 61.6 26.08C65.4933 28.2133 68.5867 31.3333 70.88 35.44C73.1733 39.5467 74.32 44.5333 74.32 50.4C74.32 56.2667 73.1733 61.2533 70.88 65.36C68.5867 69.4667 65.4933 72.6133 61.6 74.8C57.7067 76.9333 53.36 78 48.56 78H34.24Z" fill="white"/>
<path d="M143.091 72H128.304V28.3636H143.389C147.722 28.3636 151.443 29.2372 154.554 30.9844C157.679 32.7173 160.08 35.2102 161.756 38.4631C163.432 41.7159 164.27 45.608 164.27 50.1392C164.27 54.6847 163.425 58.5909 161.734 61.858C160.058 65.125 157.636 67.6321 154.469 69.3793C151.315 71.1264 147.523 72 143.091 72ZM136.209 65.1605H142.707C145.747 65.1605 148.283 64.6065 150.314 63.4986C152.345 62.3764 153.872 60.7074 154.895 58.4915C155.918 56.2614 156.429 53.4773 156.429 50.1392C156.429 46.8011 155.918 44.0312 154.895 41.8295C153.872 39.6136 152.359 37.9588 150.357 36.8651C148.368 35.7571 145.896 35.2031 142.942 35.2031H136.209V65.1605ZM185.928 72.6392C182.647 72.6392 179.813 71.9574 177.427 70.5938C175.055 69.2159 173.229 67.2699 171.951 64.7557C170.673 62.2273 170.033 59.2514 170.033 55.8281C170.033 52.4616 170.673 49.5071 171.951 46.9645C173.244 44.4077 175.048 42.419 177.363 40.9986C179.678 39.5639 182.398 38.8466 185.523 38.8466C187.54 38.8466 189.444 39.1733 191.234 39.8267C193.038 40.4659 194.629 41.4602 196.006 42.8097C197.398 44.1591 198.492 45.8778 199.288 47.9659C200.083 50.0398 200.481 52.5114 200.481 55.3807V57.7457H173.656V52.5469H193.087C193.073 51.0696 192.754 49.7557 192.129 48.6051C191.504 47.4403 190.63 46.5241 189.508 45.8565C188.4 45.1889 187.107 44.8551 185.63 44.8551C184.053 44.8551 182.668 45.2386 181.475 46.0057C180.282 46.7585 179.352 47.7528 178.684 48.9886C178.031 50.2102 177.697 51.5526 177.683 53.0156V57.554C177.683 59.4574 178.031 61.0909 178.727 62.4545C179.423 63.804 180.396 64.8409 181.646 65.5653C182.896 66.2756 184.359 66.6307 186.035 66.6307C187.157 66.6307 188.173 66.4744 189.082 66.1619C189.991 65.8352 190.779 65.3594 191.447 64.7344C192.114 64.1094 192.619 63.3352 192.96 62.4119L200.161 63.2216C199.707 65.125 198.84 66.7869 197.562 68.2074C196.298 69.6136 194.678 70.7074 192.704 71.4886C190.729 72.2557 188.471 72.6392 185.928 72.6392ZM235.301 39.2727L223.647 72H215.124L203.469 39.2727H211.694L219.215 63.5838H219.556L227.098 39.2727H235.301ZM254.014 72.6392C250.733 72.6392 247.899 71.9574 245.513 70.5938C243.141 69.2159 241.315 67.2699 240.037 64.7557C238.759 62.2273 238.119 59.2514 238.119 55.8281C238.119 52.4616 238.759 49.5071 240.037 46.9645C241.33 44.4077 243.134 42.419 245.449 40.9986C247.764 39.5639 250.484 38.8466 253.609 38.8466C255.626 38.8466 257.53 39.1733 259.32 39.8267C261.124 40.4659 262.714 41.4602 264.092 42.8097C265.484 44.1591 266.578 45.8778 267.374 47.9659C268.169 50.0398 268.567 52.5114 268.567 55.3807V57.7457H241.741V52.5469H261.173C261.159 51.0696 260.839 49.7557 260.214 48.6051C259.589 47.4403 258.716 46.5241 257.594 45.8565C256.486 45.1889 255.193 44.8551 253.716 44.8551C252.139 44.8551 250.754 45.2386 249.561 46.0057C248.368 46.7585 247.438 47.7528 246.77 48.9886C246.116 50.2102 245.783 51.5526 245.768 53.0156V57.554C245.768 59.4574 246.116 61.0909 246.812 62.4545C247.509 63.804 248.482 64.8409 249.732 65.5653C250.982 66.2756 252.445 66.6307 254.121 66.6307C255.243 66.6307 256.259 66.4744 257.168 66.1619C258.077 65.8352 258.865 65.3594 259.533 64.7344C260.2 64.1094 260.705 63.3352 261.045 62.4119L268.247 63.2216C267.793 65.125 266.926 66.7869 265.648 68.2074C264.384 69.6136 262.764 70.7074 260.79 71.4886C258.815 72.2557 256.557 72.6392 254.014 72.6392ZM282.805 28.3636V72H275.092V28.3636H282.805ZM305.012 72.6392C301.816 72.6392 299.046 71.9361 296.702 70.5298C294.359 69.1236 292.54 67.1562 291.248 64.6278C289.969 62.0994 289.33 59.1449 289.33 55.7642C289.33 52.3835 289.969 49.4219 291.248 46.8793C292.54 44.3366 294.359 42.3622 296.702 40.956C299.046 39.5497 301.816 38.8466 305.012 38.8466C308.208 38.8466 310.978 39.5497 313.322 40.956C315.665 42.3622 317.477 44.3366 318.755 46.8793C320.048 49.4219 320.694 52.3835 320.694 55.7642C320.694 59.1449 320.048 62.0994 318.755 64.6278C317.477 67.1562 315.665 69.1236 313.322 70.5298C310.978 71.9361 308.208 72.6392 305.012 72.6392ZM305.055 66.4602C306.788 66.4602 308.237 65.9844 309.401 65.0327C310.566 64.0668 311.433 62.7741 312.001 61.1548C312.583 59.5355 312.874 57.7315 312.874 55.7429C312.874 53.7401 312.583 51.929 312.001 50.3097C311.433 48.6761 310.566 47.3764 309.401 46.4105C308.237 45.4446 306.788 44.9616 305.055 44.9616C303.279 44.9616 301.802 45.4446 300.623 46.4105C299.458 47.3764 298.585 48.6761 298.002 50.3097C297.434 51.929 297.15 53.7401 297.15 55.7429C297.15 57.7315 297.434 59.5355 298.002 61.1548C298.585 62.7741 299.458 64.0668 300.623 65.0327C301.802 65.9844 303.279 66.4602 305.055 66.4602ZM327.24 84.2727V39.2727H334.826V44.6847H335.273C335.671 43.8892 336.232 43.044 336.956 42.1491C337.681 41.2401 338.661 40.4659 339.897 39.8267C341.132 39.1733 342.709 38.8466 344.627 38.8466C347.155 38.8466 349.435 39.4929 351.466 40.7855C353.512 42.0639 355.131 43.9602 356.324 46.4744C357.532 48.9744 358.135 52.0426 358.135 55.679C358.135 59.2727 357.546 62.3267 356.367 64.8409C355.188 67.3551 353.583 69.2727 351.551 70.5938C349.52 71.9148 347.219 72.5753 344.648 72.5753C342.773 72.5753 341.218 72.2628 339.982 71.6378C338.746 71.0128 337.752 70.2599 336.999 69.3793C336.26 68.4844 335.685 67.6392 335.273 66.8438H334.953V84.2727H327.24ZM334.804 55.6364C334.804 57.7528 335.103 59.6065 335.699 61.1974C336.31 62.7884 337.184 64.0312 338.32 64.9261C339.471 65.8068 340.863 66.2472 342.496 66.2472C344.201 66.2472 345.628 65.7926 346.779 64.8835C347.929 63.9602 348.796 62.7031 349.378 61.1122C349.975 59.5071 350.273 57.6818 350.273 55.6364C350.273 53.6051 349.982 51.8011 349.4 50.2244C348.817 48.6477 347.951 47.4119 346.8 46.517C345.65 45.6222 344.215 45.1747 342.496 45.1747C340.848 45.1747 339.449 45.608 338.299 46.4744C337.148 47.3409 336.275 48.5554 335.678 50.1179C335.096 51.6804 334.804 53.5199 334.804 55.6364ZM379.229 72.6392C375.948 72.6392 373.114 71.9574 370.728 70.5938C368.355 69.2159 366.53 67.2699 365.252 64.7557C363.973 62.2273 363.334 59.2514 363.334 55.8281C363.334 52.4616 363.973 49.5071 365.252 46.9645C366.544 44.4077 368.348 42.419 370.664 40.9986C372.979 39.5639 375.699 38.8466 378.824 38.8466C380.841 38.8466 382.745 39.1733 384.534 39.8267C386.338 40.4659 387.929 41.4602 389.307 42.8097C390.699 44.1591 391.793 45.8778 392.588 47.9659C393.384 50.0398 393.782 52.5114 393.782 55.3807V57.7457H366.956V52.5469H386.388C386.374 51.0696 386.054 49.7557 385.429 48.6051C384.804 47.4403 383.931 46.5241 382.809 45.8565C381.701 45.1889 380.408 44.8551 378.931 44.8551C377.354 44.8551 375.969 45.2386 374.776 46.0057C373.583 46.7585 372.652 47.7528 371.985 48.9886C371.331 50.2102 370.998 51.5526 370.983 53.0156V57.554C370.983 59.4574 371.331 61.0909 372.027 62.4545C372.723 63.804 373.696 64.8409 374.946 65.5653C376.196 66.2756 377.659 66.6307 379.336 66.6307C380.458 66.6307 381.473 66.4744 382.382 66.1619C383.292 65.8352 384.08 65.3594 384.748 64.7344C385.415 64.1094 385.919 63.3352 386.26 62.4119L393.462 63.2216C393.007 65.125 392.141 66.7869 390.863 68.2074C389.598 69.6136 387.979 70.7074 386.005 71.4886C384.03 72.2557 381.772 72.6392 379.229 72.6392ZM400.307 72V39.2727H407.786V44.7273H408.126C408.723 42.8381 409.746 41.3821 411.195 40.3594C412.658 39.3224 414.327 38.804 416.202 38.804C416.628 38.804 417.104 38.8253 417.629 38.8679C418.169 38.8963 418.616 38.946 418.972 39.017V46.1122C418.645 45.9986 418.126 45.8991 417.416 45.8139C416.72 45.7145 416.045 45.6648 415.392 45.6648C413.986 45.6648 412.722 45.9702 411.599 46.581C410.491 47.1776 409.618 48.0085 408.979 49.0739C408.339 50.1392 408.02 51.3679 408.02 52.7599V72H400.307ZM449.962 47.9233L442.931 48.6903C442.732 47.9801 442.384 47.3125 441.887 46.6875C441.404 46.0625 440.751 45.5582 439.927 45.1747C439.103 44.7912 438.094 44.5994 436.901 44.5994C435.296 44.5994 433.947 44.9474 432.853 45.6435C431.773 46.3395 431.241 47.2415 431.255 48.3494C431.241 49.3011 431.589 50.0753 432.299 50.6719C433.023 51.2685 434.217 51.7585 435.879 52.142L441.461 53.3352C444.558 54.0028 446.859 55.0611 448.364 56.5099C449.884 57.9588 450.651 59.8551 450.665 62.1989C450.651 64.2585 450.048 66.0767 448.854 67.6534C447.675 69.2159 446.035 70.4375 443.933 71.3182C441.83 72.1989 439.415 72.6392 436.688 72.6392C432.683 72.6392 429.458 71.8011 427.015 70.125C424.572 68.4347 423.116 66.0838 422.647 63.0724L430.168 62.348C430.509 63.8253 431.234 64.9403 432.342 65.6932C433.45 66.446 434.891 66.8224 436.667 66.8224C438.499 66.8224 439.969 66.446 441.077 65.6932C442.2 64.9403 442.761 64.0099 442.761 62.902C442.761 61.9645 442.398 61.1903 441.674 60.5795C440.964 59.9687 439.856 59.5 438.35 59.1733L432.768 58.0014C429.629 57.348 427.306 56.2472 425.8 54.6989C424.295 53.1364 423.549 51.1619 423.563 48.7756C423.549 46.7585 424.096 45.0114 425.204 43.5341C426.326 42.0426 427.881 40.892 429.87 40.0824C431.873 39.2585 434.181 38.8466 436.795 38.8466C440.63 38.8466 443.648 39.6634 445.85 41.2969C448.066 42.9304 449.437 45.1392 449.962 47.9233Z" fill="#2CB1BC"/>
</g>
<defs>
<clipPath id="clip0_1_2">
<rect width="454" height="100" fill="white"/>
</clipPath>
</defs>
</svg>
