<svg width="100" height="100" viewBox="0 0 100 100" fill="none" xmlns="http://www.w3.org/2000/svg">
<g clip-path="url(#clip0_1_2)">
<rect width="100" height="100" rx="30" fill="#2CB1BC"/>
<path d="M29.6 78V22.8H39.04V78H29.6ZM34.24 78V69.6H47.84C51.0933 69.6 53.9733 68.88 56.48 67.44C58.9867 65.9467 60.96 63.7867 62.4 60.96C63.8933 58.08 64.64 54.56 64.64 50.4C64.64 46.24 63.8933 42.7467 62.4 39.92C60.96 37.04 58.9867 34.88 56.48 33.44C53.9733 31.9467 51.0933 31.2 47.84 31.2H34.24V22.8H48.56C53.36 22.8 57.7067 23.8933 61.6 26.08C65.4933 28.2133 68.5867 31.3333 70.88 35.44C73.1733 39.5467 74.32 44.5333 74.32 50.4C74.32 56.2667 73.1733 61.2533 70.88 65.36C68.5867 69.4667 65.4933 72.6133 61.6 74.8C57.7067 76.9333 53.36 78 48.56 78H34.24Z" fill="white"/>
</g>
<defs>
<clipPath id="clip0_1_2">
<rect width="100" height="100" fill="white"/>
</clipPath>
</defs>
</svg>
